<?xml version="1.0" encoding="UTF-8" standalone="no"?>
<!DOCTYPE svg PUBLIC "-//W3C//DTD SVG 1.1//EN"
 "http://www.w3.org/Graphics/SVG/1.1/DTD/svg11.dtd">
<!-- Generated by graphviz version 2.40.1 (20161225.0304)
 -->
<!-- Title: controllers_diagram Pages: 1 -->
<svg width="650pt" height="593pt"
 viewBox="0.00 0.00 650.19 593.00" xmlns="http://www.w3.org/2000/svg" xmlns:xlink="http://www.w3.org/1999/xlink">
<g id="graph0" class="graph" transform="scale(1 1) rotate(0) translate(4 589)">
<title>controllers_diagram</title>
<polygon fill="transparent" stroke="transparent" points="-4,4 -4,-589 646.1934,-589 646.1934,4 -4,4"/>
<!-- _diagram_info -->
<g id="node1" class="node">
<title>_diagram_info</title>
<text text-anchor="start" x="40" y="-74.6" font-family="Times,serif" font-size="13.00" fill="#000000">Controllers diagram</text>
<text text-anchor="start" x="40" y="-61.6" font-family="Times,serif" font-size="13.00" fill="#000000">Date: Aug 09 2019 &#45; 12:20</text>
<text text-anchor="start" x="40" y="-48.6" font-family="Times,serif" font-size="13.00" fill="#000000">Migration version: 20190719142736</text>
<text text-anchor="start" x="40" y="-35.6" font-family="Times,serif" font-size="13.00" fill="#000000">Generated by RailRoady 1.5.3</text>
<text text-anchor="start" x="40" y="-22.6" font-family="Times,serif" font-size="13.00" fill="#000000">http://railroady.prestonlee.com</text>
</g>
<!-- ApplicationController -->
<g id="node2" class="node">
<title>ApplicationController</title>
<path fill="none" stroke="#000000" d="M380,-352.5C380,-352.5 553.9316,-352.5 553.9316,-352.5 559.9316,-352.5 565.9316,-358.5 565.9316,-364.5 565.9316,-364.5 565.9316,-430.5 565.9316,-430.5 565.9316,-436.5 559.9316,-442.5 553.9316,-442.5 553.9316,-442.5 380,-442.5 380,-442.5 374,-442.5 368,-436.5 368,-430.5 368,-430.5 368,-364.5 368,-364.5 368,-358.5 374,-352.5 380,-352.5"/>
<text text-anchor="middle" x="466.9658" y="-427.3" font-family="Times,serif" font-size="14.00" fill="#000000">ApplicationController</text>
<polyline fill="none" stroke="#000000" points="368,-420.5 565.9316,-420.5 "/>
<polyline fill="none" stroke="#000000" points="368,-396.5 565.9316,-396.5 "/>
<text text-anchor="start" x="376" y="-381.3" font-family="Times,serif" font-size="14.00" fill="#000000">configure_permitted_parameters</text>
<polyline fill="none" stroke="#000000" points="368,-374.5 565.9316,-374.5 "/>
<text text-anchor="start" x="376" y="-359.3" font-family="Times,serif" font-size="14.00" fill="#000000">_layout</text>
</g>
<!-- Api::TestController -->
<g id="node3" class="node">
<title>Api::TestController</title>
<path fill="none" stroke="#000000" d="M508,-480.5C508,-480.5 609.4502,-480.5 609.4502,-480.5 615.4502,-480.5 621.4502,-486.5 621.4502,-492.5 621.4502,-492.5 621.4502,-572.5 621.4502,-572.5 621.4502,-578.5 615.4502,-584.5 609.4502,-584.5 609.4502,-584.5 508,-584.5 508,-584.5 502,-584.5 496,-578.5 496,-572.5 496,-572.5 496,-492.5 496,-492.5 496,-486.5 502,-480.5 508,-480.5"/>
<text text-anchor="middle" x="558.7251" y="-569.3" font-family="Times,serif" font-size="14.00" fill="#000000">Api::TestController</text>
<polyline fill="none" stroke="#000000" points="496,-562.5 621.4502,-562.5 "/>
<text text-anchor="start" x="504" y="-547.3" font-family="Times,serif" font-size="14.00" fill="#000000">index</text>
<text text-anchor="start" x="504" y="-533.3" font-family="Times,serif" font-size="14.00" fill="#000000">test</text>
<polyline fill="none" stroke="#000000" points="496,-526.5 621.4502,-526.5 "/>
<polyline fill="none" stroke="#000000" points="496,-502.5 621.4502,-502.5 "/>
<text text-anchor="start" x="504" y="-487.3" font-family="Times,serif" font-size="14.00" fill="#000000">_layout</text>
</g>
<!-- Api::CategoriesController -->
<g id="node4" class="node">
<title>Api::CategoriesController</title>
<path fill="none" stroke="#000000" d="M492,-144.5C492,-144.5 630.1934,-144.5 630.1934,-144.5 636.1934,-144.5 642.1934,-150.5 642.1934,-156.5 642.1934,-156.5 642.1934,-222.5 642.1934,-222.5 642.1934,-228.5 636.1934,-234.5 630.1934,-234.5 630.1934,-234.5 492,-234.5 492,-234.5 486,-234.5 480,-228.5 480,-222.5 480,-222.5 480,-156.5 480,-156.5 480,-150.5 486,-144.5 492,-144.5"/>
<text text-anchor="middle" x="561.0967" y="-219.3" font-family="Times,serif" font-size="14.00" fill="#000000">Api::CategoriesController</text>
<polyline fill="none" stroke="#000000" points="480,-212.5 642.1934,-212.5 "/>
<text text-anchor="start" x="488" y="-197.3" font-family="Times,serif" font-size="14.00" fill="#000000">index</text>
<polyline fill="none" stroke="#000000" points="480,-190.5 642.1934,-190.5 "/>
<polyline fill="none" stroke="#000000" points="480,-166.5 642.1934,-166.5 "/>
<text text-anchor="start" x="488" y="-151.3" font-family="Times,serif" font-size="14.00" fill="#000000">_layout</text>
</g>
<!-- Api::CommentsController -->
<g id="node5" class="node">
<title>Api::CommentsController</title>
<path fill="none" stroke="#000000" d="M140,-336.5C140,-336.5 278.9932,-336.5 278.9932,-336.5 284.9932,-336.5 290.9932,-342.5 290.9932,-348.5 290.9932,-348.5 290.9932,-442.5 290.9932,-442.5 290.9932,-448.5 284.9932,-454.5 278.9932,-454.5 278.9932,-454.5 140,-454.5 140,-454.5 134,-454.5 128,-448.5 128,-442.5 128,-442.5 128,-348.5 128,-348.5 128,-342.5 134,-336.5 140,-336.5"/>
<text text-anchor="middle" x="209.4966" y="-439.3" font-family="Times,serif" font-size="14.00" fill="#000000">Api::CommentsController</text>
<polyline fill="none" stroke="#000000" points="128,-432.5 290.9932,-432.5 "/>
<text text-anchor="start" x="136" y="-417.3" font-family="Times,serif" font-size="14.00" fill="#000000">create</text>
<text text-anchor="start" x="136" y="-403.3" font-family="Times,serif" font-size="14.00" fill="#000000">show</text>
<polyline fill="none" stroke="#000000" points="128,-396.5 290.9932,-396.5 "/>
<polyline fill="none" stroke="#000000" points="128,-372.5 290.9932,-372.5 "/>
<text text-anchor="start" x="136" y="-357.3" font-family="Times,serif" font-size="14.00" fill="#000000">_layout</text>
<text text-anchor="start" x="136" y="-343.3" font-family="Times,serif" font-size="14.00" fill="#000000">comment_params</text>
</g>
<!-- Api::NotificationsController -->
<g id="node6" class="node">
<title>Api::NotificationsController</title>
<path fill="none" stroke="#000000" d="M332,-.5C332,-.5 482.6553,-.5 482.6553,-.5 488.6553,-.5 494.6553,-6.5 494.6553,-12.5 494.6553,-12.5 494.6553,-106.5 494.6553,-106.5 494.6553,-112.5 488.6553,-118.5 482.6553,-118.5 482.6553,-118.5 332,-118.5 332,-118.5 326,-118.5 320,-112.5 320,-106.5 320,-106.5 320,-12.5 320,-12.5 320,-6.5 326,-.5 332,-.5"/>
<text text-anchor="middle" x="407.3276" y="-103.3" font-family="Times,serif" font-size="14.00" fill="#000000">Api::NotificationsController</text>
<polyline fill="none" stroke="#000000" points="320,-96.5 494.6553,-96.5 "/>
<text text-anchor="start" x="328" y="-81.3" font-family="Times,serif" font-size="14.00" fill="#000000">destroy</text>
<text text-anchor="start" x="328" y="-67.3" font-family="Times,serif" font-size="14.00" fill="#000000">destroy_all</text>
<text text-anchor="start" x="328" y="-53.3" font-family="Times,serif" font-size="14.00" fill="#000000">index</text>
<polyline fill="none" stroke="#000000" points="320,-46.5 494.6553,-46.5 "/>
<polyline fill="none" stroke="#000000" points="320,-22.5 494.6553,-22.5 "/>
<text text-anchor="start" x="328" y="-7.3" font-family="Times,serif" font-size="14.00" fill="#000000">_layout</text>
</g>
<!-- Api::LikesController -->
<g id="node7" class="node">
<title>Api::LikesController</title>
<path fill="none" stroke="#000000" d="M12,-192.5C12,-192.5 121.4277,-192.5 121.4277,-192.5 127.4277,-192.5 133.4277,-198.5 133.4277,-204.5 133.4277,-204.5 133.4277,-284.5 133.4277,-284.5 133.4277,-290.5 127.4277,-296.5 121.4277,-296.5 121.4277,-296.5 12,-296.5 12,-296.5 6,-296.5 0,-290.5 0,-284.5 0,-284.5 0,-204.5 0,-204.5 0,-198.5 6,-192.5 12,-192.5"/>
<text text-anchor="middle" x="66.7139" y="-281.3" font-family="Times,serif" font-size="14.00" fill="#000000">Api::LikesController</text>
<polyline fill="none" stroke="#000000" points="0,-274.5 133.4277,-274.5 "/>
<text text-anchor="start" x="8" y="-259.3" font-family="Times,serif" font-size="14.00" fill="#000000">create</text>
<polyline fill="none" stroke="#000000" points="0,-252.5 133.4277,-252.5 "/>
<polyline fill="none" stroke="#000000" points="0,-228.5 133.4277,-228.5 "/>
<text text-anchor="start" x="8" y="-213.3" font-family="Times,serif" font-size="14.00" fill="#000000">_layout</text>
<text text-anchor="start" x="8" y="-199.3" font-family="Times,serif" font-size="14.00" fill="#000000">like_params</text>
</g>
<!-- Api::UsersController -->
<g id="node8" class="node">
<title>Api::UsersController</title>
<path fill="none" stroke="#000000" d="M332,-144.5C332,-144.5 442.207,-144.5 442.207,-144.5 448.207,-144.5 454.207,-150.5 454.207,-156.5 454.207,-156.5 454.207,-306.5 454.207,-306.5 454.207,-312.5 448.207,-318.5 442.207,-318.5 442.207,-318.5 332,-318.5 332,-318.5 326,-318.5 320,-312.5 320,-306.5 320,-306.5 320,-156.5 320,-156.5 320,-150.5 326,-144.5 332,-144.5"/>
<text text-anchor="middle" x="387.1035" y="-303.3" font-family="Times,serif" font-size="14.00" fill="#000000">Api::UsersController</text>
<polyline fill="none" stroke="#000000" points="320,-296.5 454.207,-296.5 "/>
<text text-anchor="start" x="328" y="-281.3" font-family="Times,serif" font-size="14.00" fill="#000000">edit</text>
<text text-anchor="start" x="328" y="-267.3" font-family="Times,serif" font-size="14.00" fill="#000000">find</text>
<text text-anchor="start" x="328" y="-253.3" font-family="Times,serif" font-size="14.00" fill="#000000">my_info</text>
<text text-anchor="start" x="328" y="-239.3" font-family="Times,serif" font-size="14.00" fill="#000000">show</text>
<text text-anchor="start" x="328" y="-225.3" font-family="Times,serif" font-size="14.00" fill="#000000">update</text>
<text text-anchor="start" x="328" y="-211.3" font-family="Times,serif" font-size="14.00" fill="#000000">user_posts</text>
<polyline fill="none" stroke="#000000" points="320,-204.5 454.207,-204.5 "/>
<polyline fill="none" stroke="#000000" points="320,-180.5 454.207,-180.5 "/>
<text text-anchor="start" x="328" y="-165.3" font-family="Times,serif" font-size="14.00" fill="#000000">_layout</text>
<text text-anchor="start" x="328" y="-151.3" font-family="Times,serif" font-size="14.00" fill="#000000">user_params</text>
</g>
<!-- Api::PostsController -->
<g id="node9" class="node">
<title>Api::PostsController</title>
<path fill="none" stroke="#000000" d="M172,-128.5C172,-128.5 279.8965,-128.5 279.8965,-128.5 285.8965,-128.5 291.8965,-134.5 291.8965,-140.5 291.8965,-140.5 291.8965,-276.5 291.8965,-276.5 291.8965,-282.5 285.8965,-288.5 279.8965,-288.5 279.8965,-288.5 172,-288.5 172,-288.5 166,-288.5 160,-282.5 160,-276.5 160,-276.5 160,-140.5 160,-140.5 160,-134.5 166,-128.5 172,-128.5"/>
<text text-anchor="middle" x="225.9482" y="-273.3" font-family="Times,serif" font-size="14.00" fill="#000000">Api::PostsController</text>
<polyline fill="none" stroke="#000000" points="160,-266.5 291.8965,-266.5 "/>
<text text-anchor="start" x="168" y="-251.3" font-family="Times,serif" font-size="14.00" fill="#000000">create</text>
<text text-anchor="start" x="168" y="-237.3" font-family="Times,serif" font-size="14.00" fill="#000000">edit</text>
<text text-anchor="start" x="168" y="-223.3" font-family="Times,serif" font-size="14.00" fill="#000000">index</text>
<text text-anchor="start" x="168" y="-209.3" font-family="Times,serif" font-size="14.00" fill="#000000">show</text>
<text text-anchor="start" x="168" y="-195.3" font-family="Times,serif" font-size="14.00" fill="#000000">update</text>
<polyline fill="none" stroke="#000000" points="160,-188.5 291.8965,-188.5 "/>
<polyline fill="none" stroke="#000000" points="160,-164.5 291.8965,-164.5 "/>
<text text-anchor="start" x="168" y="-149.3" font-family="Times,serif" font-size="14.00" fill="#000000">_layout</text>
<text text-anchor="start" x="168" y="-135.3" font-family="Times,serif" font-size="14.00" fill="#000000">post_params</text>
</g>
</g>
</svg>
