<?xml version="1.0" encoding="UTF-8" standalone="no"?>
<!DOCTYPE svg PUBLIC "-//W3C//DTD SVG 1.1//EN"
 "http://www.w3.org/Graphics/SVG/1.1/DTD/svg11.dtd">
<!-- Generated by graphviz version 2.40.1 (20161225.0304)
 -->
<!-- Title: models_diagram Pages: 1 -->
<svg width="563pt" height="369pt"
 viewBox="0.00 0.00 563.08 369.00" xmlns="http://www.w3.org/2000/svg" xmlns:xlink="http://www.w3.org/1999/xlink">
<g id="graph0" class="graph" transform="scale(1 1) rotate(0) translate(4 365)">
<title>models_diagram</title>
<polygon fill="transparent" stroke="transparent" points="-4,4 -4,-365 559.0835,-365 559.0835,4 -4,4"/>
<!-- _diagram_info -->
<g id="node1" class="node">
<title>_diagram_info</title>
<text text-anchor="start" x="8" y="-346.6" font-family="Times,serif" font-size="13.00" fill="#000000">Models diagram</text>
<text text-anchor="start" x="8" y="-333.6" font-family="Times,serif" font-size="13.00" fill="#000000">Date: Aug 09 2019 &#45; 12:19</text>
<text text-anchor="start" x="8" y="-320.6" font-family="Times,serif" font-size="13.00" fill="#000000">Migration version: 20190719142736</text>
<text text-anchor="start" x="8" y="-307.6" font-family="Times,serif" font-size="13.00" fill="#000000">Generated by RailRoady 1.5.3</text>
<text text-anchor="start" x="8" y="-294.6" font-family="Times,serif" font-size="13.00" fill="#000000">http://railroady.prestonlee.com</text>
</g>
<!-- Category -->
<g id="node2" class="node">
<title>Category</title>
<ellipse fill="none" stroke="#000000" cx="267.6877" cy="-324.5" rx="42.5456" ry="18"/>
<text text-anchor="middle" x="267.6877" y="-320.3" font-family="Times,serif" font-size="14.00" fill="#000000">Category</text>
</g>
<!-- Post -->
<g id="node8" class="node">
<title>Post</title>
<ellipse fill="none" stroke="#000000" cx="274.6877" cy="-234" rx="27" ry="18"/>
<text text-anchor="middle" x="274.6877" y="-229.8" font-family="Times,serif" font-size="14.00" fill="#000000">Post</text>
</g>
<!-- Category&#45;&gt;Post -->
<g id="edge1" class="edge">
<title>Category&#45;&gt;Post</title>
<path fill="none" stroke="#96d08f" d="M269.7443,-297.9118C270.6112,-286.7038 271.6214,-273.6439 272.5018,-262.2616"/>
<ellipse fill="none" stroke="#96d08f" cx="269.4128" cy="-302.1979" rx="4" ry="4"/>
<polygon fill="#96d08f" stroke="#96d08f" points="272.5259,-261.9482 277.7838,-252.325 272.9116,-256.963 273.2972,-251.9779 273.2972,-251.9779 273.2972,-251.9779 272.9116,-256.963 268.8106,-251.6309 272.5259,-261.9482 272.5259,-261.9482"/>
</g>
<!-- Mention -->
<g id="node3" class="node">
<title>Mention</title>
<ellipse fill="none" stroke="#000000" cx="285.6877" cy="-90" rx="40.149" ry="18"/>
<text text-anchor="middle" x="285.6877" y="-85.8" font-family="Times,serif" font-size="14.00" fill="#000000">Mention</text>
</g>
<!-- Notification -->
<g id="node5" class="node">
<title>Notification</title>
<ellipse fill="none" stroke="#000000" cx="319.6877" cy="-18" rx="52.2106" ry="18"/>
<text text-anchor="middle" x="319.6877" y="-13.8" font-family="Times,serif" font-size="14.00" fill="#000000">Notification</text>
</g>
<!-- Mention&#45;&gt;Notification -->
<g id="edge2" class="edge">
<title>Mention&#45;&gt;Notification</title>
<path fill="none" stroke="#b2ef1c" d="M297.5714,-64.8345C300.8868,-57.8137 304.4886,-50.1865 307.804,-43.1656"/>
<ellipse fill="none" stroke="#b2ef1c" cx="295.8003" cy="-68.5852" rx="4" ry="4"/>
<ellipse fill="#b2ef1c" stroke="#b2ef1c" cx="309.554" cy="-39.4595" rx="4" ry="4"/>
</g>
<!-- Like -->
<g id="node4" class="node">
<title>Like</title>
<ellipse fill="none" stroke="#000000" cx="192.6877" cy="-162" rx="27" ry="18"/>
<text text-anchor="middle" x="192.6877" y="-157.8" font-family="Times,serif" font-size="14.00" fill="#000000">Like</text>
</g>
<!-- Comment -->
<g id="node6" class="node">
<title>Comment</title>
<ellipse fill="none" stroke="#000000" cx="282.6877" cy="-162" rx="44.9768" ry="18"/>
<text text-anchor="middle" x="282.6877" y="-157.8" font-family="Times,serif" font-size="14.00" fill="#000000">Comment</text>
</g>
<!-- Comment&#45;&gt;Mention -->
<g id="edge3" class="edge">
<title>Comment&#45;&gt;Mention</title>
<path fill="none" stroke="#0a7fd9" d="M283.7788,-135.8144C284.0095,-130.2775 284.2542,-124.4053 284.4886,-118.7785"/>
<ellipse fill="none" stroke="#0a7fd9" cx="283.6113" cy="-139.8348" rx="4" ry="4"/>
<polygon fill="#0a7fd9" stroke="#0a7fd9" points="284.5041,-118.4046 289.4166,-108.6006 284.7123,-113.4089 284.9205,-108.4133 284.9205,-108.4133 284.9205,-108.4133 284.7123,-113.4089 280.4244,-108.2259 284.5041,-118.4046 284.5041,-118.4046"/>
</g>
<!-- ApplicationRecord -->
<g id="node7" class="node">
<title>ApplicationRecord</title>
<ellipse fill="none" stroke="#000000" cx="477.6877" cy="-324.5" rx="77.2916" ry="18"/>
<text text-anchor="middle" x="477.6877" y="-320.3" font-family="Times,serif" font-size="14.00" fill="#000000">ApplicationRecord</text>
</g>
<!-- Post&#45;&gt;Like -->
<g id="edge5" class="edge">
<title>Post&#45;&gt;Like</title>
<path fill="none" stroke="#4b49a3" d="M251.7606,-213.8688C240.8923,-204.3259 227.9058,-192.9232 216.8803,-183.2423"/>
<ellipse fill="none" stroke="#4b49a3" cx="255.088" cy="-216.7905" rx="4" ry="4"/>
<polygon fill="#4b49a3" stroke="#4b49a3" points="216.7714,-183.1467 212.2261,-173.1671 213.0142,-179.8476 209.257,-176.5486 209.257,-176.5486 209.257,-176.5486 213.0142,-179.8476 206.2879,-179.9301 216.7714,-183.1467 216.7714,-183.1467"/>
</g>
<!-- Post&#45;&gt;Comment -->
<g id="edge4" class="edge">
<title>Post&#45;&gt;Comment</title>
<path fill="none" stroke="#72bd07" d="M277.5973,-207.8144C278.2125,-202.2775 278.8649,-196.4053 279.4901,-190.7785"/>
<ellipse fill="none" stroke="#72bd07" cx="277.1483" cy="-211.8558" rx="4" ry="4"/>
<polygon fill="#72bd07" stroke="#72bd07" points="279.5374,-190.3521 285.1143,-180.9102 280.0896,-185.3827 280.6418,-180.4133 280.6418,-180.4133 280.6418,-180.4133 280.0896,-185.3827 276.1693,-179.9163 279.5374,-190.3521 279.5374,-190.3521"/>
</g>
<!-- User -->
<g id="node9" class="node">
<title>User</title>
<ellipse fill="none" stroke="#000000" cx="355.6877" cy="-324.5" rx="27" ry="18"/>
<text text-anchor="middle" x="355.6877" y="-320.3" font-family="Times,serif" font-size="14.00" fill="#000000">User</text>
</g>
<!-- User&#45;&gt;Notification -->
<g id="edge7" class="edge">
<title>User&#45;&gt;Notification</title>
<path fill="none" stroke="#1c4538" d="M355.1191,-298.0149C353.7644,-251.7978 349.2738,-153.5623 334.6877,-72 333.1534,-63.4202 330.8562,-54.233 328.5179,-45.914"/>
<ellipse fill="none" stroke="#1c4538" cx="355.2352" cy="-302.2858" rx="4" ry="4"/>
<polygon fill="#1c4538" stroke="#1c4538" points="328.5114,-45.8914 330.0116,-35.0286 327.1026,-41.0939 325.6939,-36.2965 325.6939,-36.2965 325.6939,-36.2965 327.1026,-41.0939 321.3762,-37.5643 328.5114,-45.8914 328.5114,-45.8914"/>
</g>
<!-- User&#45;&gt;Post -->
<g id="edge6" class="edge">
<title>User&#45;&gt;Post</title>
<path fill="none" stroke="#a19574" d="M336.0329,-302.5399C323.7788,-288.8486 308.0246,-271.2467 295.5499,-257.3089"/>
<ellipse fill="none" stroke="#a19574" cx="338.9109" cy="-305.7556" rx="4" ry="4"/>
<polygon fill="#a19574" stroke="#a19574" points="295.3044,-257.0346 291.9883,-246.5821 291.9698,-253.3089 288.6352,-249.5833 288.6352,-249.5833 288.6352,-249.5833 291.9698,-253.3089 285.2821,-252.5844 295.3044,-257.0346 295.3044,-257.0346"/>
</g>
</g>
</svg>
