<?xml version="1.0" encoding="UTF-8" standalone="no"?>
<!DOCTYPE svg PUBLIC "-//W3C//DTD SVG 1.1//EN"
 "http://www.w3.org/Graphics/SVG/1.1/DTD/svg11.dtd">
<!-- Generated by graphviz version 2.40.1 (20161225.0304)
 -->
<!-- Title: models_diagram Pages: 1 -->
<svg width="991pt" height="923pt"
 viewBox="0.00 0.00 991.08 923.00" xmlns="http://www.w3.org/2000/svg" xmlns:xlink="http://www.w3.org/1999/xlink">
<g id="graph0" class="graph" transform="scale(1 1) rotate(0) translate(4 919)">
<title>models_diagram</title>
<polygon fill="transparent" stroke="transparent" points="-4,4 -4,-919 987.0835,-919 987.0835,4 -4,4"/>
<!-- _diagram_info -->
<g id="node1" class="node">
<title>_diagram_info</title>
<text text-anchor="start" x="8" y="-788.6" font-family="Times,serif" font-size="13.00" fill="#000000">Models diagram</text>
<text text-anchor="start" x="8" y="-775.6" font-family="Times,serif" font-size="13.00" fill="#000000">Date: Aug 09 2019 &#45; 12:19</text>
<text text-anchor="start" x="8" y="-762.6" font-family="Times,serif" font-size="13.00" fill="#000000">Migration version: 20190719142736</text>
<text text-anchor="start" x="8" y="-749.6" font-family="Times,serif" font-size="13.00" fill="#000000">Generated by RailRoady 1.5.3</text>
<text text-anchor="start" x="8" y="-736.6" font-family="Times,serif" font-size="13.00" fill="#000000">http://railroady.prestonlee.com</text>
</g>
<!-- Category -->
<g id="node2" class="node">
<title>Category</title>
<path fill="none" stroke="#000000" d="M237.8254,-723.5C237.8254,-723.5 461.55,-723.5 461.55,-723.5 467.55,-723.5 473.55,-729.5 473.55,-735.5 473.55,-735.5 473.55,-797.5 473.55,-797.5 473.55,-803.5 467.55,-809.5 461.55,-809.5 461.55,-809.5 237.8254,-809.5 237.8254,-809.5 231.8254,-809.5 225.8254,-803.5 225.8254,-797.5 225.8254,-797.5 225.8254,-735.5 225.8254,-735.5 225.8254,-729.5 231.8254,-723.5 237.8254,-723.5"/>
<text text-anchor="middle" x="349.6877" y="-794.3" font-family="Times,serif" font-size="14.00" fill="#000000">Category</text>
<polyline fill="none" stroke="#000000" points="225.8254,-787.5 473.55,-787.5 "/>
<text text-anchor="start" x="233.8254" y="-772.3" font-family="Times,serif" font-size="14.00" fill="#000000">id :bigint</text>
<text text-anchor="start" x="233.8254" y="-758.3" font-family="Times,serif" font-size="14.00" fill="#000000">name :character varying</text>
<text text-anchor="start" x="233.8254" y="-744.3" font-family="Times,serif" font-size="14.00" fill="#000000">created_at :timestamp without time zone</text>
<text text-anchor="start" x="233.8254" y="-730.3" font-family="Times,serif" font-size="14.00" fill="#000000">updated_at :timestamp without time zone</text>
</g>
<!-- Post -->
<g id="node8" class="node">
<title>Post</title>
<path fill="none" stroke="#000000" d="M311.8254,-439.5C311.8254,-439.5 535.55,-439.5 535.55,-439.5 541.55,-439.5 547.55,-445.5 547.55,-451.5 547.55,-451.5 547.55,-569.5 547.55,-569.5 547.55,-575.5 541.55,-581.5 535.55,-581.5 535.55,-581.5 311.8254,-581.5 311.8254,-581.5 305.8254,-581.5 299.8254,-575.5 299.8254,-569.5 299.8254,-569.5 299.8254,-451.5 299.8254,-451.5 299.8254,-445.5 305.8254,-439.5 311.8254,-439.5"/>
<text text-anchor="middle" x="423.6877" y="-566.3" font-family="Times,serif" font-size="14.00" fill="#000000">Post</text>
<polyline fill="none" stroke="#000000" points="299.8254,-559.5 547.55,-559.5 "/>
<text text-anchor="start" x="307.8254" y="-544.3" font-family="Times,serif" font-size="14.00" fill="#000000">category_id :bigint</text>
<text text-anchor="start" x="307.8254" y="-530.3" font-family="Times,serif" font-size="14.00" fill="#000000">title :character varying</text>
<text text-anchor="start" x="307.8254" y="-516.3" font-family="Times,serif" font-size="14.00" fill="#000000">content :text</text>
<text text-anchor="start" x="307.8254" y="-502.3" font-family="Times,serif" font-size="14.00" fill="#000000">user_id :bigint</text>
<text text-anchor="start" x="307.8254" y="-488.3" font-family="Times,serif" font-size="14.00" fill="#000000">created_at :timestamp without time zone</text>
<text text-anchor="start" x="307.8254" y="-474.3" font-family="Times,serif" font-size="14.00" fill="#000000">updated_at :timestamp without time zone</text>
<text text-anchor="start" x="307.8254" y="-460.3" font-family="Times,serif" font-size="14.00" fill="#000000">image :character varying</text>
<text text-anchor="start" x="307.8254" y="-446.3" font-family="Times,serif" font-size="14.00" fill="#000000">id :bigint</text>
</g>
<!-- Category&#45;&gt;Post -->
<g id="edge1" class="edge">
<title>Category&#45;&gt;Post</title>
<path fill="none" stroke="#26cc57" d="M364.4544,-715.4152C374.7107,-679.934 388.5897,-631.9203 400.3349,-591.2882"/>
<ellipse fill="none" stroke="#26cc57" cx="363.268" cy="-719.5199" rx="4" ry="4"/>
<polygon fill="#26cc57" stroke="#26cc57" points="400.3386,-591.2752 407.4386,-582.9181 401.7271,-586.4718 403.1156,-581.6685 403.1156,-581.6685 403.1156,-581.6685 401.7271,-586.4718 398.7926,-580.4188 400.3386,-591.2752 400.3386,-591.2752"/>
</g>
<!-- Mention -->
<g id="node3" class="node">
<title>Mention</title>
<path fill="none" stroke="#000000" d="M386.8254,-151.5C386.8254,-151.5 610.55,-151.5 610.55,-151.5 616.55,-151.5 622.55,-157.5 622.55,-163.5 622.55,-163.5 622.55,-239.5 622.55,-239.5 622.55,-245.5 616.55,-251.5 610.55,-251.5 610.55,-251.5 386.8254,-251.5 386.8254,-251.5 380.8254,-251.5 374.8254,-245.5 374.8254,-239.5 374.8254,-239.5 374.8254,-163.5 374.8254,-163.5 374.8254,-157.5 380.8254,-151.5 386.8254,-151.5"/>
<text text-anchor="middle" x="498.6877" y="-236.3" font-family="Times,serif" font-size="14.00" fill="#000000">Mention</text>
<polyline fill="none" stroke="#000000" points="374.8254,-229.5 622.55,-229.5 "/>
<text text-anchor="start" x="382.8254" y="-214.3" font-family="Times,serif" font-size="14.00" fill="#000000">id :bigint</text>
<text text-anchor="start" x="382.8254" y="-200.3" font-family="Times,serif" font-size="14.00" fill="#000000">comment_id :bigint</text>
<text text-anchor="start" x="382.8254" y="-186.3" font-family="Times,serif" font-size="14.00" fill="#000000">user_id :bigint</text>
<text text-anchor="start" x="382.8254" y="-172.3" font-family="Times,serif" font-size="14.00" fill="#000000">created_at :timestamp without time zone</text>
<text text-anchor="start" x="382.8254" y="-158.3" font-family="Times,serif" font-size="14.00" fill="#000000">updated_at :timestamp without time zone</text>
</g>
<!-- Notification -->
<g id="node5" class="node">
<title>Notification</title>
<path fill="none" stroke="#000000" d="M462.8254,-.5C462.8254,-.5 686.55,-.5 686.55,-.5 692.55,-.5 698.55,-6.5 698.55,-12.5 698.55,-12.5 698.55,-102.5 698.55,-102.5 698.55,-108.5 692.55,-114.5 686.55,-114.5 686.55,-114.5 462.8254,-114.5 462.8254,-114.5 456.8254,-114.5 450.8254,-108.5 450.8254,-102.5 450.8254,-102.5 450.8254,-12.5 450.8254,-12.5 450.8254,-6.5 456.8254,-.5 462.8254,-.5"/>
<text text-anchor="middle" x="574.6877" y="-99.3" font-family="Times,serif" font-size="14.00" fill="#000000">Notification</text>
<polyline fill="none" stroke="#000000" points="450.8254,-92.5 698.55,-92.5 "/>
<text text-anchor="start" x="458.8254" y="-77.3" font-family="Times,serif" font-size="14.00" fill="#000000">id :bigint</text>
<text text-anchor="start" x="458.8254" y="-63.3" font-family="Times,serif" font-size="14.00" fill="#000000">user_id :bigint</text>
<text text-anchor="start" x="458.8254" y="-49.3" font-family="Times,serif" font-size="14.00" fill="#000000">action_type :character varying</text>
<text text-anchor="start" x="458.8254" y="-35.3" font-family="Times,serif" font-size="14.00" fill="#000000">action_id :bigint</text>
<text text-anchor="start" x="458.8254" y="-21.3" font-family="Times,serif" font-size="14.00" fill="#000000">created_at :timestamp without time zone</text>
<text text-anchor="start" x="458.8254" y="-7.3" font-family="Times,serif" font-size="14.00" fill="#000000">updated_at :timestamp without time zone</text>
</g>
<!-- Mention&#45;&gt;Notification -->
<g id="edge2" class="edge">
<title>Mention&#45;&gt;Notification</title>
<path fill="none" stroke="#685b5b" d="M529.0735,-143.9269C532.8466,-136.778 536.7241,-129.4312 540.5488,-122.1843"/>
<ellipse fill="none" stroke="#685b5b" cx="527.1359" cy="-147.5982" rx="4" ry="4"/>
<ellipse fill="#685b5b" stroke="#685b5b" cx="542.4831" cy="-118.5192" rx="4" ry="4"/>
</g>
<!-- Like -->
<g id="node4" class="node">
<title>Like</title>
<path fill="none" stroke="#000000" d="M254.51,-302.5C254.51,-302.5 344.8655,-302.5 344.8655,-302.5 350.8655,-302.5 356.8655,-308.5 356.8655,-314.5 356.8655,-314.5 356.8655,-376.5 356.8655,-376.5 356.8655,-382.5 350.8655,-388.5 344.8655,-388.5 344.8655,-388.5 254.51,-388.5 254.51,-388.5 248.51,-388.5 242.51,-382.5 242.51,-376.5 242.51,-376.5 242.51,-314.5 242.51,-314.5 242.51,-308.5 248.51,-302.5 254.51,-302.5"/>
<text text-anchor="middle" x="299.6877" y="-373.3" font-family="Times,serif" font-size="14.00" fill="#000000">Like</text>
<polyline fill="none" stroke="#000000" points="242.51,-366.5 356.8655,-366.5 "/>
<text text-anchor="start" x="250.51" y="-351.3" font-family="Times,serif" font-size="14.00" fill="#000000">id :bigint</text>
<text text-anchor="start" x="250.51" y="-337.3" font-family="Times,serif" font-size="14.00" fill="#000000">user_id :bigint</text>
<text text-anchor="start" x="250.51" y="-323.3" font-family="Times,serif" font-size="14.00" fill="#000000">post_id :bigint</text>
<text text-anchor="start" x="250.51" y="-309.3" font-family="Times,serif" font-size="14.00" fill="#000000">like_type :integer</text>
</g>
<!-- Comment -->
<g id="node6" class="node">
<title>Comment</title>
<path fill="none" stroke="#000000" d="M386.8254,-288.5C386.8254,-288.5 610.55,-288.5 610.55,-288.5 616.55,-288.5 622.55,-294.5 622.55,-300.5 622.55,-300.5 622.55,-390.5 622.55,-390.5 622.55,-396.5 616.55,-402.5 610.55,-402.5 610.55,-402.5 386.8254,-402.5 386.8254,-402.5 380.8254,-402.5 374.8254,-396.5 374.8254,-390.5 374.8254,-390.5 374.8254,-300.5 374.8254,-300.5 374.8254,-294.5 380.8254,-288.5 386.8254,-288.5"/>
<text text-anchor="middle" x="498.6877" y="-387.3" font-family="Times,serif" font-size="14.00" fill="#000000">Comment</text>
<polyline fill="none" stroke="#000000" points="374.8254,-380.5 622.55,-380.5 "/>
<text text-anchor="start" x="382.8254" y="-365.3" font-family="Times,serif" font-size="14.00" fill="#000000">id :bigint</text>
<text text-anchor="start" x="382.8254" y="-351.3" font-family="Times,serif" font-size="14.00" fill="#000000">content :text</text>
<text text-anchor="start" x="382.8254" y="-337.3" font-family="Times,serif" font-size="14.00" fill="#000000">post_id :bigint</text>
<text text-anchor="start" x="382.8254" y="-323.3" font-family="Times,serif" font-size="14.00" fill="#000000">user_id :bigint</text>
<text text-anchor="start" x="382.8254" y="-309.3" font-family="Times,serif" font-size="14.00" fill="#000000">created_at :timestamp without time zone</text>
<text text-anchor="start" x="382.8254" y="-295.3" font-family="Times,serif" font-size="14.00" fill="#000000">updated_at :timestamp without time zone</text>
</g>
<!-- Comment&#45;&gt;Mention -->
<g id="edge3" class="edge">
<title>Comment&#45;&gt;Mention</title>
<path fill="none" stroke="#39d552" d="M498.6877,-279.8922C498.6877,-273.8149 498.6877,-267.6764 498.6877,-261.6518"/>
<ellipse fill="none" stroke="#39d552" cx="498.6878" cy="-284.1736" rx="4" ry="4"/>
<polygon fill="#39d552" stroke="#39d552" points="498.6878,-261.651 503.1877,-251.651 498.6878,-256.651 498.6877,-251.651 498.6877,-251.651 498.6877,-251.651 498.6878,-256.651 494.1877,-251.6511 498.6878,-261.651 498.6878,-261.651"/>
</g>
<!-- ApplicationRecord -->
<g id="node7" class="node">
<title>ApplicationRecord</title>
<ellipse fill="none" stroke="#000000" cx="905.6877" cy="-766.5" rx="77.2916" ry="18"/>
<text text-anchor="middle" x="905.6877" y="-762.3" font-family="Times,serif" font-size="14.00" fill="#000000">ApplicationRecord</text>
</g>
<!-- Post&#45;&gt;Like -->
<g id="edge5" class="edge">
<title>Post&#45;&gt;Like</title>
<path fill="none" stroke="#2086ba" d="M365.1915,-432.6623C356.0981,-420.5621 346.9038,-408.3278 338.3944,-397.0049"/>
<ellipse fill="none" stroke="#2086ba" cx="367.6176" cy="-435.8906" rx="4" ry="4"/>
<polygon fill="#2086ba" stroke="#2086ba" points="338.3384,-396.9303 335.928,-386.2326 335.3345,-392.9332 332.3306,-388.9361 332.3306,-388.9361 332.3306,-388.9361 335.3345,-392.9332 328.7332,-391.6396 338.3384,-396.9303 338.3384,-396.9303"/>
</g>
<!-- Post&#45;&gt;Comment -->
<g id="edge4" class="edge">
<title>Post&#45;&gt;Comment</title>
<path fill="none" stroke="#069d53" d="M459.5394,-431.6263C462.5285,-425.0504 465.5315,-418.4438 468.4723,-411.9739"/>
<ellipse fill="none" stroke="#069d53" cx="457.8029" cy="-435.4468" rx="4" ry="4"/>
<polygon fill="#069d53" stroke="#069d53" points="468.5896,-411.7159 476.8243,-404.4744 470.6586,-407.1641 472.7276,-402.6122 472.7276,-402.6122 472.7276,-402.6122 470.6586,-407.1641 468.631,-400.7501 468.5896,-411.7159 468.5896,-411.7159"/>
</g>
<!-- User -->
<g id="node9" class="node">
<title>User</title>
<path fill="none" stroke="#000000" d="M503.053,-618.5C503.053,-618.5 798.3225,-618.5 798.3225,-618.5 804.3225,-618.5 810.3225,-624.5 810.3225,-630.5 810.3225,-630.5 810.3225,-902.5 810.3225,-902.5 810.3225,-908.5 804.3225,-914.5 798.3225,-914.5 798.3225,-914.5 503.053,-914.5 503.053,-914.5 497.053,-914.5 491.053,-908.5 491.053,-902.5 491.053,-902.5 491.053,-630.5 491.053,-630.5 491.053,-624.5 497.053,-618.5 503.053,-618.5"/>
<text text-anchor="middle" x="650.6877" y="-899.3" font-family="Times,serif" font-size="14.00" fill="#000000">User</text>
<polyline fill="none" stroke="#000000" points="491.053,-892.5 810.3225,-892.5 "/>
<text text-anchor="start" x="499.053" y="-877.3" font-family="Times,serif" font-size="14.00" fill="#000000">updated_at :timestamp without time zone</text>
<text text-anchor="start" x="499.053" y="-863.3" font-family="Times,serif" font-size="14.00" fill="#000000">provider :character varying</text>
<text text-anchor="start" x="499.053" y="-849.3" font-family="Times,serif" font-size="14.00" fill="#000000">uid :character varying</text>
<text text-anchor="start" x="499.053" y="-835.3" font-family="Times,serif" font-size="14.00" fill="#000000">encrypted_password :character varying</text>
<text text-anchor="start" x="499.053" y="-821.3" font-family="Times,serif" font-size="14.00" fill="#000000">reset_password_token :character varying</text>
<text text-anchor="start" x="499.053" y="-807.3" font-family="Times,serif" font-size="14.00" fill="#000000">reset_password_sent_at :timestamp without time zone</text>
<text text-anchor="start" x="499.053" y="-793.3" font-family="Times,serif" font-size="14.00" fill="#000000">allow_password_change :boolean</text>
<text text-anchor="start" x="499.053" y="-779.3" font-family="Times,serif" font-size="14.00" fill="#000000">remember_created_at :timestamp without time zone</text>
<text text-anchor="start" x="499.053" y="-765.3" font-family="Times,serif" font-size="14.00" fill="#000000">confirmation_token :character varying</text>
<text text-anchor="start" x="499.053" y="-751.3" font-family="Times,serif" font-size="14.00" fill="#000000">confirmed_at :timestamp without time zone</text>
<text text-anchor="start" x="499.053" y="-737.3" font-family="Times,serif" font-size="14.00" fill="#000000">confirmation_sent_at :timestamp without time zone</text>
<text text-anchor="start" x="499.053" y="-723.3" font-family="Times,serif" font-size="14.00" fill="#000000">unconfirmed_email :character varying</text>
<text text-anchor="start" x="499.053" y="-709.3" font-family="Times,serif" font-size="14.00" fill="#000000">name :character varying</text>
<text text-anchor="start" x="499.053" y="-695.3" font-family="Times,serif" font-size="14.00" fill="#000000">nickname :character varying</text>
<text text-anchor="start" x="499.053" y="-681.3" font-family="Times,serif" font-size="14.00" fill="#000000">image :character varying</text>
<text text-anchor="start" x="499.053" y="-667.3" font-family="Times,serif" font-size="14.00" fill="#000000">email :character varying</text>
<text text-anchor="start" x="499.053" y="-653.3" font-family="Times,serif" font-size="14.00" fill="#000000">tokens :json</text>
<text text-anchor="start" x="499.053" y="-639.3" font-family="Times,serif" font-size="14.00" fill="#000000">created_at :timestamp without time zone</text>
<text text-anchor="start" x="499.053" y="-625.3" font-family="Times,serif" font-size="14.00" fill="#000000">id :bigint</text>
</g>
<!-- User&#45;&gt;Notification -->
<g id="edge7" class="edge">
<title>User&#45;&gt;Notification</title>
<path fill="none" stroke="#9277c6" d="M667.5713,-610.0102C676.1104,-483.4751 676.6566,-302.1548 631.6877,-151 628.9518,-141.8036 625.0793,-132.5993 620.6246,-123.7477"/>
<ellipse fill="none" stroke="#9277c6" cx="667.2751" cy="-614.2744" rx="4" ry="4"/>
<polygon fill="#9277c6" stroke="#9277c6" points="620.4904,-123.4952 619.768,-112.5531 618.1427,-119.0806 615.7949,-114.6661 615.7949,-114.6661 615.7949,-114.6661 618.1427,-119.0806 611.8218,-116.779 620.4904,-123.4952 620.4904,-123.4952"/>
</g>
<!-- User&#45;&gt;Post -->
<g id="edge6" class="edge">
<title>User&#45;&gt;Post</title>
<path fill="none" stroke="#983c67" d="M513.7702,-612.0908C506.9046,-604.3481 500.1586,-596.7402 493.6385,-589.3872"/>
<ellipse fill="none" stroke="#983c67" cx="516.6444" cy="-615.3322" rx="4" ry="4"/>
<polygon fill="#983c67" stroke="#983c67" points="493.2919,-588.9963 490.0243,-578.5285 489.9746,-585.2552 486.6573,-581.5141 486.6573,-581.5141 486.6573,-581.5141 489.9746,-585.2552 483.2903,-584.4997 493.2919,-588.9963 493.2919,-588.9963"/>
</g>
</g>
</svg>
